<svg xmlns="http://www.w3.org/2000/svg" viewBox="0 0 56.27 53.998"><polyline points="14.147 0 42.121 0 40.314 7.671 56.27 7.671 46.027 53.998 10.234 53.998 0 7.671 15.956 7.671 14.147 0 42.121 0" fill="#15397f"/><path d="M 46.205,23.391 A 4.2,4.2 0 0 0 44.683,20.47 4.97,4.97 0 0 1 44.171,19.656 L 14.944,19.644 v -1.772 a 3.445,3.445 0 0 0 -1.859,0.49 c -0.166,0.157 -0.338,-0.329 -0.507,-0.164 a 4.3,4.3 0 0 1 -2.532,1.625 v 19.952 l 31.941,-0.03 c 0.507,0 0.326,-0.941 1.005,-0.774 0.336,0.157 0.506,0.483 0.845,0.318 a 1.284,1.284 0 0 1 1.013,-0.318 c 1.017,-0.332 1.017,-1.791 2.029,-1.949 0.506,-0.17 0.506,-0.11 0.844,-0.439 0,-0.162 0.34,-0.7 0.34,-0.862 a 13.631,13.631 0 0 0 -2.027,-2.274 c -0.169,-0.16 0,-0.648 0,-0.971 -0.169,0 -0.508,-0.163 -0.678,-0.163 -0.508,-0.327 -0.17,-0.971 -0.17,-1.461 0,-0.159 0.34,-0.159 0.5,-0.159 0.513,-0.653 0,-1.465 0.175,-1.788 a 35.665,35.665 0 0 1 2.2,-3.245 0.481,0.481 0 0 0 0,-0.651 c -1.014,-0.322 -1.858,-0.806 -1.858,-1.618 z" fill="#d59f0f"/><g fill="#15397f"><path d="m 14.88,35.129 h -1.045 l -0.616,3 h -1.65 l 1.783,-8.759 h 2.711 c 1.531,0 2.892,0.723 2.892,2.433 -0.003,2.23 -1.582,3.326 -4.075,3.326 z m 0.9,-4.374 h -1.073 l -0.6,2.976 h 1.073 c 1.336,0 2.059,-0.553 2.059,-1.831 0.002,-0.855 -0.625,-1.145 -1.455,-1.145 z"/><path d="M 26.235,30.755 H 22.2 L 21.765,32.9 h 3.652 l -0.264,1.35 h -3.651 l -0.508,2.492 h 4.041 l -0.288,1.387 h -5.689 l 1.786,-8.759 h 5.691 z"/><path d="m 34.529,38.129 h -1.566 l 1.326,-6.53 -2.99,4.3 h -0.842 l -1.217,-4.276 -1.324,6.506 h -1.568 l 1.787,-8.759 h 1.951 l 1.181,4.24 2.879,-4.24 h 2.169 z"/><path d="m 41.806,38.129 -0.253,-2.037 h -3.3 l -1.06,2.037 h -1.7 l 4.642,-8.759 h 2.167 l 1.145,8.759 z m -0.856,-7.216 -2.037,3.855 h 2.484 z"/></g><g fill="#ffffff"><polygon points="38.353,20.871 36.387,23.031 38.28,24.758 35.107,24.41 33.092,26.624 33.115,24.191 29.902,23.837 33.146,22.718 33.214,20.306 35.145,21.985"/><polygon points="27.231,21.711 27.133,23.569 29.539,23.832 27.119,24.738 26.975,26.522 25.543,25.252 23.123,26.001 24.604,24.372 23.246,23.063 25.641,23.346"/><polygon points="22.803,26.131 21.465,27.401 22.34,28.527 20.56,28.15 19.163,29.374 19.401,27.928 17.619,27.524 19.519,27.031 19.829,25.549 20.805,26.631"/><path d="m 38.849,24.906 a 8.924,8.924 0 0 1 4.968,3.368 c 1.434,2.222 -0.1,5.072 -0.1,5.072 a 6.578,6.578 0 0 0 -1.319,-5.629 9.732,9.732 0 0 0 -3.549,-2.811 z"/></g></svg>